<svg width="100px" height="100px" viewBox="0 0 100 100" preserveAspectRatio="xMidYMid meet" >
<rect id="svgEditorBackground" x="0" y="0" width="100" height="100" style="fill: none; stroke: none;"/>
<defs id="svgEditorDefs">
<linearGradient gradientTransform="rotate(90)" gradientUnits="objectBoundingBox" id="lgrd2-d-reflect" spreadMethod="reflect" x1="0%" x2="5%" y1="0%" y2="5%">
<stop offset="0%" stop-color="#e20709" stop-opacity="0.8"/>
<stop offset="5%" stop-color="#9ad346" stop-opacity="1"/>
</linearGradient>
<linearGradient gradientTransform="rotate(90)" gradientUnits="objectBoundingBox" id="lgrd3-a" spreadMethod="repeat" x1="10%" x2="20%" y1="20%" y2="20%">
<stop offset="5%" stop-color="#babc91" stop-opacity="1"/>
<stop offset="50%" stop-color="#c8d591" stop-opacity="1"/>
<stop offset="90%" stop-color="#afd591" stop-opacity="1"/>
</linearGradient><radialGradient cx="50%" cy="50%" fx="50%" fy="50%" id="rgrd2-white-green" r="50%"><stop offset="0%" style="stop-color:rwhite;stop-opacity:0"/>
<stop offset="100%" style="stop-color:green;stop-opacity:1"/>
</radialGradient><pattern height="20%" id="star-navy-obox" patternUnits="objectBoundingBox" viewBox="-20 -20 168 168" width="20%" x="0%" y="0%"><path d="M63.999 0l-20.001 40.020-44 8 32 28-8 44 40.001-20 39.999 20-7.999-44 32.001-28-44.002-7.946z" style="fill:navy;stroke:none;"/></pattern><pattern height="20%" id="apple-green-obox" patternUnits="objectBoundingBox" viewBox="-20 -20 168 168" width="20%" x="0%" y="0%"><path d="M91.428 24c-8.764 0-16.798 3.091-23.094 8.232 2.173-12.878 14.362-25.253 14.494-25.387 1.563-1.562 1.563-4.094 0-5.657-1.561-1.562-4.095-1.562-5.656 0-0.657 0.657-15.123 15.301-16.976 31.486-6.373-5.405-14.613-8.675-23.625-8.675-20.198 0-36.572 16.373-36.572 36.572 0 5.373 1.175 10.466 3.257 15.061l14.745 35.809c1.3 3.18 3.226 6.166 5.808 8.749 10.414 10.414 27.299 10.414 37.712 0 0.907-0.907 1.729-1.864 2.477-2.861 0.749 0.996 1.571 1.954 2.477 2.861 10.414 10.414 27.299 10.414 37.712 0 2.583-2.583 4.508-5.568 5.808-8.749l0.002 0.004 14.743-35.813c2.084-4.595 3.259-9.688 3.259-15.060 0-20.198-16.373-36.572-36.572-36.572zM64 85.337c-0.078-0.105-0.161-0.207-0.241-0.311 0.082-0.091 0.16-0.186 0.241-0.278v0.589z" style="fill:green;stroke:none,"/></pattern><pattern height="10" id="hatch-green-45" patternTransform="rotate(45) scale(0.4)" patternUnits="userSpaceOnUse" viewBox="0 0 10 10" width="10" x="0" y="0"><line style="stroke: green; stroke-width: 5px;" x1="0" x2="10" y1="5" y2="5"/></pattern><pattern height="10" id="apple-green-usr" patternUnits="userSpaceOnUse" viewBox="-20 -20 168 168" width="10" x="0" y="0"><path d="M91.428 24c-8.764 0-16.798 3.091-23.094 8.232 2.173-12.878 14.362-25.253 14.494-25.387 1.563-1.562 1.563-4.094 0-5.657-1.561-1.562-4.095-1.562-5.656 0-0.657 0.657-15.123 15.301-16.976 31.486-6.373-5.405-14.613-8.675-23.625-8.675-20.198 0-36.572 16.373-36.572 36.572 0 5.373 1.175 10.466 3.257 15.061l14.745 35.809c1.3 3.18 3.226 6.166 5.808 8.749 10.414 10.414 27.299 10.414 37.712 0 0.907-0.907 1.729-1.864 2.477-2.861 0.749 0.996 1.571 1.954 2.477 2.861 10.414 10.414 27.299 10.414 37.712 0 2.583-2.583 4.508-5.568 5.808-8.749l0.002 0.004 14.743-35.813c2.084-4.595 3.259-9.688 3.259-15.060 0-20.198-16.373-36.572-36.572-36.572zM64 85.337c-0.078-0.105-0.161-0.207-0.241-0.311 0.082-0.091 0.16-0.186 0.241-0.278v0.589z" style="fill:green;stroke:none,"/></pattern><pattern height="10" id="sun-gold-usr" patternUnits="userSpaceOnUse" viewBox="-20 -20 168 168" width="10" x="0" y="0"><path d="M72 16.677v-8.677c0-4.419-3.581-8-8-8s-8 3.581-8 8v8.677c2.603-0.436 5.273-0.677 8-0.677s5.397 0.24 8 0.677z" style="fill:gold;stroke:none;"/><path d="M18.745 109.255c3.125 3.124 8.189 3.124 11.314 0l6.139-6.139c-4.373-3.114-8.199-6.941-11.314-11.314l-6.139 6.139c-3.123 3.123-3.123 8.189 0 11.314z" style="fill:gold;stroke:none;"/><path d="M56 111.323v8.677c0 4.419 3.581 8 8 8s8-3.581 8-8v-8.677c-2.603 0.436-5.273 0.677-8 0.677s-5.397-0.24-8-0.677z" style="fill:gold;stroke:none;"/><path d="M36.197 24.884l-6.139-6.139c-3.125-3.124-8.189-3.124-11.314 0s-3.124 8.189 0 11.314l6.139 6.139c3.115-4.374 6.941-8.2 11.314-11.314z" style="fill:gold;stroke:none;"/><path d="M8 72h8.677c-0.437-2.603-0.677-5.273-0.677-8s0.239-5.397 0.677-8h-8.677c-4.419 0-8 3.581-8 8s3.581 8 8 8z" style="fill:gold;stroke:none;"/><path d="M120 56h-8.677c0.437 2.603 0.677 5.273 0.677 8s-0.239 5.397-0.677 8h8.677c4.419 0 8-3.581 8-8s-3.581-8-8-8z" style="fill:gold;stroke:none;"/><path d="M109.255 18.745c-3.124-3.124-8.189-3.124-11.314 0l-6.139 6.139c4.373 3.114 8.199 6.941 11.314 11.314l6.139-6.139c3.123-3.123 3.123-8.189 0-11.314z" style="fill:gold;stroke:none;"/><path d="M109.255 109.255c3.124-3.124 3.124-8.189 0-11.314l-6.139-6.139c-3.114 4.373-6.941 8.2-11.314 11.314l6.139 6.139c3.123 3.123 8.189 3.123 11.314 0z" style="fill:gold;stroke:none;"/><path d="M104 64c0 22.091-17.909 40-40 40s-40-17.909-40-40c0-22.091 17.909-40 40-40s40 17.909 40 40z" style="fill:gold;stroke:none;"/></pattern><pattern height="10" id="star-navy-usr" patternUnits="userSpaceOnUse" viewBox="-20 -20 168 168" width="10" x="0" y="0"><path d="M63.999 0l-20.001 40.020-44 8 32 28-8 44 40.001-20 39.999 20-7.999-44 32.001-28-44.002-7.946z" style="fill:navy;stroke:none;"/></pattern><pattern height="10" id="hatch-green-120" patternTransform="rotate(91.0585) scale(1.03342 1.03342)" patternUnits="userSpaceOnUse" viewBox="0 0 10 10" width="10" x="0" y="0" preserveAspectRatio="xMidYMid meet"><line style="stroke: green; stroke-width: 5px;" x1="0" x2="10" y1="5" y2="5"/></pattern><pattern height="10" id="hatch-black-45" patternTransform="rotate(45) scale(0.4)" patternUnits="userSpaceOnUse" viewBox="0 0 10 10" width="10" x="0" y="0"><line style="stroke:black;stroke-width:1px;" x1="0" x2="10" y1="5" y2="5"/></pattern><symbol id="1f340" viewBox="0 0 64 64" preserveAspectRatio="xMidYMid meet"><rect x="0" y="0" width="64" height="64" style="stroke:none;fill:none;"/><g xmlns="http://www.w3.org/2000/svg"><g fill="#4bae42"><circle cx="32" cy="31" r="2.79"/><path d="m4.237 39.995c-5.795 9.806 4.214 12.814 8.708 9.52-3.322 4.979-.071 14.423 9.522 8.703 10.686-6.372 7.826-24.547 8.328-26.552-1.75.246-20.323-2.216-26.558 8.329"/></g><path d="m12.945 49.51c1.373-1.602 2.806-3.142 4.25-4.674 1.437-1.538 2.917-3.03 4.398-4.527 1.493-1.481 2.988-2.961 4.525-4.398l2.309-2.154c.79-.697 1.56-1.413 2.366-2.095-.68.806-1.397 1.576-2.095 2.367l-2.153 2.308c-1.437 1.537-2.918 3.03-4.398 4.525-1.495 1.48-2.989 2.962-4.527 4.398-1.533 1.442-3.073 2.876-4.675 4.25" fill="#46a03c"/><path d="m59.762 22c5.795-9.805-4.214-12.815-8.708-9.52 3.322-4.979.07-14.423-9.522-8.702-10.687 6.371-7.826 24.544-8.328 26.551 1.75-.245 20.322 2.215 26.558-8.329" fill="#4bae42"/><path d="m51.05 12.485c-1.374 1.602-2.807 3.143-4.251 4.674-1.436 1.538-2.917 3.03-4.397 4.527-1.493 1.48-2.987 2.961-4.525 4.398l-2.309 2.153c-.789.699-1.561 1.416-2.366 2.097.681-.807 1.397-1.577 2.095-2.367l2.154-2.309c1.438-1.538 2.917-3.03 4.398-4.526 1.495-1.48 2.989-2.96 4.527-4.397 1.532-1.442 3.073-2.877 4.674-4.25" fill="#46a03c"/>
<path d="m22.465 3.778c-9.805-5.795-12.815 4.214-9.521 8.708-4.979-3.322-14.422-.07-8.702 9.523 6.37 10.685 24.545 7.827 26.55 8.327-.245-1.751 2.218-20.323-8.327-26.558" fill="#4ebd3b"/>
<path d="m12.945 12.486c1.602 1.374 3.142 2.807 4.674 4.25 1.538 1.437 3.03 2.917 4.527 4.397 1.481 1.494 2.961 2.989 4.399 4.526l2.153 2.308c.697.79 1.415 1.561 2.095 2.367-.807-.681-1.577-1.398-2.366-2.095l-2.309-2.153c-1.538-1.438-3.03-2.918-4.526-4.399-1.48-1.495-2.961-2.989-4.398-4.527-1.441-1.532-2.875-3.073-4.249-4.674" fill="#46a03c"/>
<path d="m41.535 58.22c9.805 5.796 12.814-4.214 9.52-8.708 4.979 3.323 14.423.071 8.703-9.522-6.371-10.685-24.545-7.826-26.551-8.326.245 1.748-2.217 20.32 8.328 26.556" fill="#4ebd3b"/>
<path d="m51.05 49.51c-1.601-1.373-3.142-2.807-4.674-4.25-1.538-1.437-3.03-2.918-4.527-4.397-1.481-1.493-2.96-2.988-4.398-4.526l-2.155-2.309c-.697-.791-1.414-1.562-2.095-2.367.806.682 1.577 1.397 2.366 2.095l2.309 2.154c1.538 1.438 3.03 2.918 4.525 4.398 1.48 1.495 2.962 2.989 4.397 4.527 1.445 1.533 2.878 3.073 4.252 4.675" fill="#46a03c"/>
<path d="m32 35.38l2.5 24.614c.141 1.381-.865 2.613-2.246 2.754s-2.614-.865-2.754-2.246c-.017-.167-.015-.347 0-.508l2.5-24.614" fill="#309126"/>
</g>
</symbol>
</defs>
<circle id="e1_circle" cx="49.0069" cy="50.0139" style="stroke-width: 3.78px; fill: none; stroke:maroon;stroke-dasharray:4px, 4px, 8px, 4px;stroke-opacity:1;" r="46.2277" />
<use xlink:href="#1f340" x="12.006927490234375" y="15.013877868652344" width="73" height="71" id="e2_emoji" />
</svg>